# File created by Blade
# Date/Time:  Fri Jan 16 19:41:12 2015
# Frame Rate: 120.000 fps
#------------------------------------------------------
:FULLY-SPECIFIED
:DEGREES
492
root 18.740430 35.464591 -21.181192 12.505880 10.206859 -0.324217
Spine -24.416462 -16.186109 -0.670122
Head 15.182371 5.985170 12.840424
LeftShoulder -4.274198 2.927685 -4.891016
LeftArm -103.722475 50.673783 -201.838567
LeftForeArm 71.526448 -0.000000 124.996860
LeftHand 30.722578 0.000000 22.475112
LeftHandThumb1 -26.253704 0.000000 33.147579
RightShoulder -20.180747 26.935660 -39.980380
RightArm 146.318748 56.192043 114.724533
RightForeArm 5.569468 -0.000000 155.228376
RightHand 4.476623 -0.000000 -26.736751
RightHandThumb1 -24.326973 -0.000000 -32.862282
LeftUpLeg -2.337575 0.221703 1.688347
LeftLeg -7.828553 -0.000000 0.000000
LeftFoot -19.859833 26.177791 -14.012977
LeftToeBase 24.367835 -0.000000 -0.000000
RightUpLeg -0.944806 -14.745359 -0.078527
RightLeg -4.256389 -0.000000 0.000000
RightFoot -23.975654 -24.446865 21.985282
RightToeBase 22.303380 -0.000000 -0.000000
493
root 18.742572 35.464360 -21.183242 12.484495 10.199419 -0.304030
Spine -24.383800 -16.047155 -0.737610
Head 15.218617 5.910697 12.753638
LeftShoulder -4.167034 2.744173 -4.847784
LeftArm -103.771688 50.709618 -201.685481
LeftForeArm 71.068672 0.000000 125.027710
LeftHand 30.855041 -0.000000 21.404566
LeftHandThumb1 -26.253704 0.000000 33.147579
RightShoulder -20.224326 26.722287 -39.931626
RightArm 145.754513 56.495844 114.392462
RightForeArm 5.340366 -0.000000 155.355608
RightHand 4.640083 -0.000000 -27.123288
RightHandThumb1 -24.326973 -0.000000 -32.862282
LeftUpLeg -2.321570 0.234605 1.663661
LeftLeg -7.813914 -0.000000 0.000000
LeftFoot -19.868736 26.147482 -14.052022
LeftToeBase 24.337590 -0.000000 -0.000000
RightUpLeg -0.931612 -14.746617 -0.108366
RightLeg -4.240214 -0.000000 0.000000
RightFoot -23.992601 -24.441856 21.994759
RightToeBase 22.276462 -0.000000 -0.000000
494
root 18.743898 35.463821 -21.185588 12.430642 10.197870 -0.290843
Spine -24.334532 -15.922452 -0.778798
Head 15.309793 5.901678 12.633925
LeftShoulder -4.017033 2.524794 -4.844287
LeftArm -103.697687 50.690517 -201.324244
LeftForeArm 70.518678 -0.000000 125.155668
LeftHand 30.968318 -0.000000 20.315471
LeftHandThumb1 -26.253704 0.000000 33.147579
RightShoulder -20.223887 26.647809 -39.967651
RightArm 145.074864 56.772675 114.058533
RightForeArm 5.563507 -0.000000 155.655144
RightHand 4.394540 -0.000000 -27.382518
RightHandThumb1 -24.326973 -0.000000 -32.862282
LeftUpLeg -2.269722 0.223507 1.651075
LeftLeg -7.810830 -0.000000 0.000000
LeftFoot -19.869182 26.149894 -14.048526
LeftToeBase 24.375161 -0.000000 -0.000000
RightUpLeg -0.880914 -14.735774 -0.139660
RightLeg -4.230030 -0.000000 0.000000
RightFoot -24.006441 -24.460088 21.957775
RightToeBase 22.356213 -0.000000 -0.000000
495
root 18.744827 35.462673 -21.189056 12.387192 10.209803 -0.274308
Spine -24.288225 -15.786409 -0.835034
Head 15.397906 5.852346 12.524694
LeftShoulder -3.831545 2.320830 -4.795754
LeftArm -103.657884 50.694234 -200.908871
LeftForeArm 70.124103 -0.000000 125.282727
LeftHand 30.911421 -0.000000 19.243141
LeftHandThumb1 -26.253704 0.000000 33.147579
RightShoulder -20.195368 26.427701 -39.920443
RightArm 144.534755 57.079837 113.744272
RightForeArm 5.365002 -0.000000 155.790136
RightHand 4.458509 -0.000000 -27.960388
RightHandThumb1 -24.326973 -0.000000 -32.862282
LeftUpLeg -2.241969 0.197438 1.637886
LeftLeg -7.786816 -0.000000 0.000000
LeftFoot -19.880386 26.148095 -14.041477
LeftToeBase 24.329912 -0.000000 -0.000000
RightUpLeg -0.842825 -14.746613 -0.166164
RightLeg -4.218156 -0.000000 0.000000
RightFoot -24.027223 -24.472259 21.950409
RightToeBase 22.323212 -0.000000 -0.000000
496
root 18.746140 35.461733 -21.191924 12.335222 10.228654 -0.257523
Spine -24.225452 -15.646335 -0.894241
Head 15.473670 5.806223 12.419265
LeftShoulder -3.646218 2.165145 -4.768584
LeftArm -103.615169 50.745196 -200.419801
LeftForeArm 69.614453 0.000000 125.382985
LeftHand 30.956102 -0.000000 18.069523
LeftHandThumb1 -26.253704 0.000000 33.147579
RightShoulder -20.154010 26.159664 -39.838416
RightArm 144.159755 57.292165 113.596957
RightForeArm 5.407550 -0.000000 155.974086
RightHand 4.637998 -0.000000 -28.118961
RightHandThumb1 -24.326973 -0.000000 -32.862282
LeftUpLeg -2.206974 0.180781 1.623831
LeftLeg -7.761059 -0.000000 0.000000
LeftFoot -19.902108 26.133930 -14.046816
LeftToeBase 24.400505 -0.000000 -0.000000
RightUpLeg -0.789420 -14.755872 -0.195190
RightLeg -4.214437 -0.000000 0.000000
RightFoot -24.037491 -24.490959 21.916980
RightToeBase 22.303883 -0.000000 -0.000000
